<svg width="242" height="86" viewBox="0 0 242 86" fill="none" xmlns="http://www.w3.org/2000/svg">
<path d="M105.85 28.8556C108.129 28.8556 110.041 29.1646 111.586 29.7827C113.17 30.3621 114.367 31.3664 115.179 32.7956C115.99 34.2248 116.395 36.1948 116.395 38.7056V58H110.833L109.848 51.8582L109.327 51.0471V38.6477C109.327 37.1412 108.979 36.0596 108.284 35.4029C107.588 34.7077 106.256 34.36 104.286 34.36C102.818 34.36 100.964 34.4179 98.7233 34.5338C96.5216 34.6497 94.3005 34.8042 92.0601 34.9974L91.4227 30.1882C92.7747 29.9178 94.3005 29.6861 96.0001 29.4929C97.6997 29.2998 99.4186 29.1453 101.157 29.0294C102.895 28.9135 104.46 28.8556 105.85 28.8556ZM113.382 40.5018L113.325 44.8474H100.288C99.1289 44.886 98.2984 45.195 97.7963 45.7744C97.2941 46.3538 97.043 47.1457 97.043 48.15V49.7144C97.043 50.8732 97.3521 51.7617 97.9701 52.3797C98.5881 52.9591 99.5538 53.2488 100.867 53.2488C101.91 53.2488 103.069 53.0364 104.344 52.6115C105.618 52.1866 106.874 51.5685 108.11 50.7574C109.385 49.9462 110.524 48.9805 111.528 47.8603V51.5106C111.142 52.09 110.582 52.7853 109.848 53.5965C109.114 54.369 108.206 55.1416 107.125 55.9141C106.082 56.6867 104.865 57.324 103.475 57.8262C102.123 58.3283 100.616 58.5794 98.9551 58.5794C97.2555 58.5794 95.7297 58.2897 94.3777 57.7103C93.0258 57.0923 91.9635 56.2038 91.191 55.045C90.4184 53.8475 90.0322 52.3797 90.0322 50.6415V47.6285C90.0322 45.3881 90.7661 43.6499 92.2339 42.4138C93.7404 41.1391 95.7877 40.5018 98.3757 40.5018H113.382ZM137.17 28.8556C138.483 28.8556 139.893 28.8942 141.4 28.9715C142.945 29.0487 144.451 29.1646 145.919 29.3191C147.387 29.435 148.7 29.6088 149.859 29.8406L149.396 34.4179C147.541 34.3793 145.687 34.3407 143.833 34.3021C142.018 34.2248 140.222 34.1862 138.445 34.1862C136.861 34.1862 135.606 34.2248 134.679 34.3021C133.79 34.3793 133.153 34.6111 132.766 34.9974C132.419 35.3836 132.245 36.0403 132.245 36.9674C132.245 38.0876 132.554 38.8408 133.172 39.2271C133.79 39.5747 134.794 39.9224 136.185 40.27L143.949 42.0662C146.267 42.6456 147.986 43.534 149.106 44.7315C150.226 45.8903 150.786 47.6865 150.786 50.12C150.786 52.4763 150.342 54.2725 149.454 55.5085C148.604 56.706 147.232 57.5365 145.34 58C143.486 58.4249 141.11 58.6374 138.213 58.6374C137.093 58.6374 135.432 58.5794 133.23 58.4635C131.028 58.3863 128.614 58.1352 125.987 57.7103L126.451 53.1329C127.223 53.1329 128.131 53.1523 129.174 53.1909C130.256 53.2295 131.395 53.2488 132.593 53.2488C133.829 53.2488 135.084 53.2488 136.359 53.2488C138.406 53.2488 139.971 53.1909 141.052 53.075C142.172 52.9205 142.945 52.6308 143.37 52.2059C143.795 51.7424 144.007 51.0857 144.007 50.2359C144.007 49.1543 143.64 48.4397 142.906 48.0921C142.211 47.7058 141.168 47.3388 139.777 46.9912L132.187 45.1371C130.449 44.6735 129.097 44.0941 128.131 43.3988C127.166 42.6649 126.47 41.7765 126.045 40.7335C125.62 39.652 125.408 38.3386 125.408 36.7935C125.408 34.7077 125.794 33.0853 126.567 31.9265C127.378 30.7677 128.633 29.9565 130.333 29.4929C132.071 29.0294 134.35 28.817 137.17 28.8556ZM169.413 21.4391V49.4247C169.413 50.6222 169.664 51.472 170.167 51.9741C170.707 52.4763 171.615 52.7274 172.89 52.7274H176.83L177.583 57.6524C176.926 57.8455 176.135 58.0193 175.207 58.1738C174.28 58.3283 173.373 58.4249 172.484 58.4635C171.596 58.5408 170.843 58.5794 170.225 58.5794C167.752 58.5794 165.821 57.9227 164.43 56.6094C163.078 55.2575 162.402 53.3261 162.402 50.8153V21.4391H169.413ZM177.873 29.5509V34.4179H157.362V29.8406L162.924 29.5509H177.873ZM191.4 29.5509L192.327 35.1132L192.964 35.9244V58H185.953V29.5509H191.4ZM205.306 28.8556L204.61 35.345H202.582C201.076 35.345 199.55 35.5961 198.005 36.0982C196.46 36.6004 194.529 37.3536 192.211 38.3579L191.747 34.2441C193.756 32.5445 195.803 31.2312 197.889 30.3041C199.975 29.3384 201.984 28.8556 203.915 28.8556H205.306ZM227.153 28.8556C229.432 28.8556 231.344 29.1646 232.889 29.7827C234.473 30.3621 235.67 31.3664 236.482 32.7956C237.293 34.2248 237.698 36.1948 237.698 38.7056V58H232.136L231.151 51.8582L230.63 51.0471V38.6477C230.63 37.1412 230.282 36.0596 229.587 35.4029C228.891 34.7077 227.559 34.36 225.589 34.36C224.121 34.36 222.267 34.4179 220.026 34.5338C217.825 34.6497 215.603 34.8042 213.363 34.9974L212.726 30.1882C214.078 29.9178 215.603 29.6861 217.303 29.4929C219.003 29.2998 220.722 29.1453 222.46 29.0294C224.198 28.9135 225.763 28.8556 227.153 28.8556ZM234.685 40.5018L234.628 44.8474H221.591C220.432 44.886 219.601 45.195 219.099 45.7744C218.597 46.3538 218.346 47.1457 218.346 48.15V49.7144C218.346 50.8732 218.655 51.7617 219.273 52.3797C219.891 52.9591 220.857 53.2488 222.17 53.2488C223.213 53.2488 224.372 53.0364 225.647 52.6115C226.921 52.1866 228.177 51.5685 229.413 50.7574C230.688 49.9462 231.827 48.9805 232.831 47.8603V51.5106C232.445 52.09 231.885 52.7853 231.151 53.5965C230.417 54.369 229.509 55.1416 228.428 55.9141C227.385 56.6867 226.168 57.324 224.778 57.8262C223.426 58.3283 221.919 58.5794 220.258 58.5794C218.558 58.5794 217.033 58.2897 215.681 57.7103C214.329 57.0923 213.267 56.2038 212.494 55.045C211.721 53.8475 211.335 52.3797 211.335 50.6415V47.6285C211.335 45.3881 212.069 43.6499 213.537 42.4138C215.043 41.1391 217.091 40.5018 219.679 40.5018H234.685Z" fill="white"/>
<g clip-path="url(#clip0_48_2)">
<path d="M-0.639648 45.7174C22.0843 45.8362 40.4832 64.2351 40.5998 86.959H40.602V45.7174H-0.639648Z" fill="#F9FBFC"/>
<path d="M82.4833 44.7582C59.7594 44.6395 41.3605 26.2405 41.2439 3.5166H41.2417V44.7582H82.4833Z" fill="#F9FBFC"/>
</g>
<defs>
<clipPath id="clip0_48_2">
<rect width="82.4833" height="82.4833" fill="white" transform="translate(0 3.51672)"/>
</clipPath>
</defs>
</svg>
